PathFileType	4	(X/Y/Z)	/home/utkubuntu/opensim/opensim_mycode/release_code/bioimitation/imitation_envs/data/02905/02905_PRE/experimental_data/static.trc
DataRate	CameraRate	NumFrames	NumMarkers	Units	OrigDataRate	OrigDataStartFrame	OrigNumFrames
100.000000	100.000000	4	53	mm	100.000000	750	1000
Frame#	Time	C7			CLAV			LANK			LASI			LBHD			LELB			LFHD			LFIN			LFMH			LHEE			LKNE			LKNI			LMED			LMET			LMIF			LPSI			LSHO			LTAD			LTHAP			LTHI			LTIAD			LTIB			LTOE			LTTU			LWRA			LWRB			RANK			RASI			RBAK			RBHD			RELB			RFHD			RFIN			RFMH			RHEE			RKNE			RKNI			RMED			RMET			RMIF			RPSI			RSHO			RTAD			RTHAP			RTHI			RTIAD			RTIB			RTOE			RTTU			RWRA			RWRB			STRN			T10			
		X1	Y1	Z1	X2	Y2	Z2	X3	Y3	Z3	X4	Y4	Z4	X5	Y5	Z5	X6	Y6	Z6	X7	Y7	Z7	X8	Y8	Z8	X9	Y9	Z9	X10	Y10	Z10	X11	Y11	Z11	X12	Y12	Z12	X13	Y13	Z13	X14	Y14	Z14	X15	Y15	Z15	X16	Y16	Z16	X17	Y17	Z17	X18	Y18	Z18	X19	Y19	Z19	X20	Y20	Z20	X21	Y21	Z21	X22	Y22	Z22	X23	Y23	Z23	X24	Y24	Z24	X25	Y25	Z25	X26	Y26	Z26	X27	Y27	Z27	X28	Y28	Z28	X29	Y29	Z29	X30	Y30	Z30	X31	Y31	Z31	X32	Y32	Z32	X33	Y33	Z33	X34	Y34	Z34	X35	Y35	Z35	X36	Y36	Z36	X37	Y37	Z37	X38	Y38	Z38	X39	Y39	Z39	X40	Y40	Z40	X41	Y41	Z41	X42	Y42	Z42	X43	Y43	Z43	X44	Y44	Z44	X45	Y45	Z45	X46	Y46	Z46	X47	Y47	Z47	X48	Y48	Z48	X49	Y49	Z49	X50	Y50	Z50	X51	Y51	Z51	X52	Y52	Z52	X53	Y53	Z53	

751	7.5	773.6950073242188	1444.990966796875	-282.9849853515622	877.1589965820312	1349.337036132812	-265.1000061035153	723.8319702148438	77.95400238037118	-362.5119934082031	899.22802734375	944.7819824218751	-361.502014160156	807.9860229492188	1538.681030273438	-354.6510009765622	720.8670043945312	1099.760009765625	-555.7139892578123	934.8170166015625	1632.0849609375	-320.878997802734	801.4240112304688	854.4650268554689	-683.429992675781	862.8170166015625	36.32300186157233	-290.3949890136719	672.1729736328125	39.39500045776374	-334.06298828125	781.989990234375	469.3290100097657	-384.2760009765624	777.5969848632812	458.3630065917969	-268.272003173828	729.4569702148438	88.42400360107428	-282.3380126953125	833.7940063476562	27.46999931335458	-384.2030029296875	803.8579711914062	73.72799682617195	-329.3949890136719	733.0490112304688	959.4340209960939	-304.3519897460935	806.10400390625	1383.913940429688	-436.8370056152341	857.4010009765625	527.7169799804689	-315.772003173828	904.47998046875	692.5289916992189	-320.251007080078	808.0910034179688	565.4099731445314	-431.2260131835936	776.8809814453125	208.2409973144532	-323.4479980468749	743.43798828125	299.0339965820314	-435.6740112304687	858.9559936523438	40.74000167846687	-335.9249877929688	811.2540283203125	384.0780029296876	-325.5620117187499	828.93701171875	890.1979980468751	-637.0520019531248	763.7360229492188	891.0579833984376	-662.9349975585935	713.125	75.07599639892581	-101.6760025024414	878.0800170898438	957.4569702148438	-116.1770019531248	695.468017578125	1340.266967773438	-159.8329925537107	793.10302734375	1526.35302734375	-195.3950042724606	676.9990234375	1105.14794921875	-18.09000015258765	916.4329833984375	1617.863037109375	-197.2870025634762	734.781982421875	857.8200073242188	158.9660034179689	854.489990234375	36.09899902343754	-159.39599609375	653.6209716796875	35.16500091552737	-131.3399963378906	796.9089965820312	474.9859924316406	-94.52500152587881	794.3300170898438	463.8070068359376	-214.0700073242186	715.6859741210938	84.86900329589848	-184.8430023193359	813.9290161132812	26.80100059509279	-66.04799652099609	802.1790161132812	67.431999206543	-130.4880065917968	724.3779907226562	966.0430297851562	-202.4909973144529	775.5659790039062	1394.256958007812	-100.4010009765622	873.6400146484375	553.4219970703125	-140.7680053710936	907.947021484375	719.6680297851562	-121.9599990844725	806.5170288085938	588.801025390625	-41.86000061035143	787.8090209960938	256.2999877929688	-143.9190063476562	738.3920288085938	298.0270080566406	-35.6730003356933	846.8870239257812	39.52199935913089	-114.083999633789	828.551025390625	394.5910034179688	-145.4620056152343	766.75	898.8200073242188	109.2910003662111	695.969970703125	894.2620239257812	119.6620025634768	896.9749755859375	1190.885986328125	-256.0589904785153	691.27099609375	1147.43896484375	-271.1239929199216	
752	7.51	773.7410278320312	1444.990966796875	-282.9649963378903	877.1890258789062	1349.316040039062	-265.1010131835935	723.8289794921875	77.95500183105477	-362.5039978027344	899.1810302734375	944.7919921875001	-361.4849853515623	808.0369873046875	1538.698974609375	-354.6270141601559	720.8400268554688	1099.756958007813	-555.7030029296873	934.9039916992188	1632.052001953125	-320.8290100097653	801.3980102539062	854.4619750976564	-683.4260253906248	862.8179931640625	36.32600021362311	-290.3919982910156	672.177001953125	39.38999938964851	-334.0589904785156	781.9660034179688	469.3240051269532	-384.2640075683593	777.5770263671875	458.3550109863282	-268.2579956054686	729.4669799804688	88.42099761962896	-282.3320007324219	833.7949829101562	27.46999931335458	-384.1969909667969	803.864013671875	73.73600006103523	-329.3930053710938	732.9959716796875	959.4299926757814	-304.335998535156	806.0809936523438	1383.911987304688	-436.8229980468747	857.3820190429688	527.7249755859376	-315.7550048828124	904.4509887695312	692.5399780273439	-320.2390136718748	808.0640258789062	565.4019775390626	-431.2160034179686	776.875	208.2409973144532	-323.4379882812499	743.4249877929688	299.0329895019532	-435.6579895019531	858.9550170898438	40.74200057983406	-335.9209899902344	811.2440185546875	384.0809936523438	-325.5459899902343	828.906982421875	890.2000122070314	-637.0460205078123	763.6900024414062	891.0609741210939	-662.919982910156	713.1209716796875	75.07199859619143	-101.6790008544922	878.0250244140625	957.4619750976562	-116.1640014648435	695.5050048828125	1340.284057617188	-159.8090057373044	793.1329956054688	1526.35400390625	-195.3760070800778	677.010009765625	1105.171020507812	-18.04100036621069	916.4990234375	1617.816040039062	-197.2369995117184	734.7869873046875	857.85498046875	159.0370025634768	854.489990234375	36.10300064086918	-159.3970031738281	653.6190185546875	35.15800094604495	-131.3410034179688	796.8920288085938	474.9800109863281	-94.51499938964834	794.323974609375	463.8039855957032	-214.0650024414061	715.6810302734375	84.86900329589848	-184.8399963378906	813.9290161132812	26.79899978637697	-66.0469970703125	802.177978515625	67.43399810791018	-130.4839935302734	724.322021484375	966.0419921875	-202.4830017089841	775.6129760742188	1394.254028320312	-100.3899993896481	873.614013671875	553.4240112304688	-140.7489929199218	907.9290161132812	719.6799926757812	-121.9359970092772	806.4710083007812	588.802978515625	-41.85699844360339	787.8040161132812	256.2980041503907	-143.9129943847656	738.3839721679688	298.0199890136719	-35.66999816894525	846.885009765625	39.52500152587893	-114.0820007324219	828.552001953125	394.5910034179688	-145.4530029296874	766.7570190429688	898.8400268554688	109.3529968261721	695.9829711914062	894.2960205078125	119.7330017089846	896.947998046875	1190.864013671875	-256.0459899902341	691.2429809570312	1147.462036132812	-271.1130065917966	
753	7.52	773.781982421875	1444.993041992188	-282.9490051269528	877.2119750976562	1349.297973632812	-265.1029968261716	723.8259887695312	77.95700073242196	-362.5	899.135009765625	944.8020019531251	-361.4649963378904	808.094970703125	1538.720947265625	-354.6090087890622	720.8109741210938	1099.748046875	-555.6929931640623	934.9979858398438	1632.02099609375	-320.7789916992184	801.3790283203125	854.4600219726564	-683.4229736328123	862.8170166015625	36.33100128173835	-290.3890075683594	672.1829833984375	39.38800048828132	-334.0549926757812	781.947021484375	469.321990966797	-384.2539978027343	777.552001953125	458.3479919433594	-268.2470092773436	729.4760131835938	88.41999816894537	-282.3280029296875	833.7949829101562	27.4720001220704	-384.1929931640625	803.864013671875	73.7409973144532	-329.3930053710938	732.9359741210938	959.4329833984376	-304.3299865722654	806.052978515625	1383.907958984375	-436.8120117187497	857.3569946289062	527.7310180664064	-315.7380065917968	904.4219970703125	692.5510253906251	-320.2250061035155	808.0380249023438	565.3939819335939	-431.209014892578	776.8679809570312	208.2400054931641	-323.4289855957031	743.416015625	299.0339965820314	-435.6430053710937	858.9550170898438	40.74499893188484	-335.9200134277344	811.2379760742188	384.0830078125001	-325.5310058593749	828.8829956054688	890.2030029296876	-637.0419921874998	763.6580200195312	891.0659790039064	-662.908020019531	713.1170043945312	75.06999969482425	-101.6800003051758	877.9669799804688	957.469970703125	-116.1529998779295	695.5369873046875	1340.303955078125	-159.7920074462888	793.1669921875	1526.35302734375	-195.3589935302731	677.02197265625	1105.196044921875	-17.99500083923315	916.5689697265625	1617.766967773438	-197.1869964599606	734.7960205078125	857.8909912109375	159.1040039062502	854.489013671875	36.10800170898441	-159.3999938964844	653.6199951171875	35.15399932861331	-131.3410034179688	796.8800048828125	474.9750061035156	-94.50599670410146	794.323974609375	463.8020019531251	-214.0590057373046	715.6799926757812	84.87100219726567	-184.8399963378906	813.927978515625	26.79899978637697	-66.0469970703125	802.1749877929688	67.43699645996097	-130.4830017089843	724.2620239257812	966.0449829101562	-202.4790039062498	775.6630249023438	1394.255004882812	-100.3779983520505	873.5919799804688	553.426025390625	-140.7310028076171	907.9030151367188	719.6909790039062	-121.91300201416	806.426025390625	588.8079833984375	-41.85900115966784	787.802001953125	256.2969970703126	-143.9100036621093	738.3779907226562	298.0150146484375	-35.66999816894525	846.8800048828125	39.52700042724612	-114.0790023803711	828.5590209960938	394.5910034179688	-145.4470062255859	766.77197265625	898.8679809570312	109.4120025634768	695.9990234375	894.3300170898438	119.7979965209963	896.926025390625	1190.843994140625	-256.0400085449216	691.2130126953125	1147.487060546875	-271.0989990234373	
754	7.53	773.8159790039062	1444.9990234375	-282.9349975585934	877.2249755859375	1349.282958984375	-265.1059875488278	723.822998046875	77.95899963378915	-362.4989929199219	899.0889892578125	944.8129882812501	-361.4440002441404	808.1580200195312	1538.746948242188	-354.5969848632809	720.781005859375	1099.734008789063	-555.679992675781	935.094970703125	1631.989990234375	-320.7319946289059	801.364990234375	854.4609985351564	-683.4210205078123	862.8150024414062	36.33700180053717	-290.3869934082031	672.1890258789062	39.38499832153327	-334.0530090332031	781.9329833984375	469.3229980468751	-384.2449951171874	777.5280151367188	458.3450012207032	-268.2390136718749	729.4819946289062	88.42099761962896	-282.3269958496094	833.7960205078125	27.476999282837	-384.1910095214844	803.8590087890625	73.7409973144532	-329.3919982910156	732.875	959.4359741210939	-304.3330078124998	806.0230102539062	1383.905029296875	-436.8009948730466	857.3309936523438	527.7360229492189	-315.7210083007811	904.3920288085938	692.5629882812501	-320.209014892578	808.0170288085938	565.3889770507814	-431.2030029296874	776.8629760742188	208.2400054931641	-323.4219970703124	743.4130249023438	299.0379943847657	-435.6300048828124	858.9569702148438	40.74800109863288	-335.9200134277344	811.2319946289062	384.0849914550782	-325.5199890136718	828.864990234375	890.2059936523439	-637.0399780273435	763.6430053710938	891.0689697265626	-662.898986816406	713.1129760742188	75.06999969482425	-101.677001953125	877.905029296875	957.4769897460938	-116.1449966430662	695.5679931640625	1340.326049804688	-159.7749938964841	793.2059936523438	1526.350952148438	-195.3459930419918	677.0349731445312	1105.222045898438	-17.9510002136228	916.64501953125	1617.714965820312	-197.1380004882809	734.81298828125	857.927978515625	159.164993286133	854.4849853515625	36.11199951171879	-159.4029998779297	653.6229858398438	35.15299987792972	-131.3379974365234	796.875	474.9710083007812	-94.49800109863271	794.3309936523438	463.7999877929688	-214.0520019531249	715.6820068359375	84.87400054931645	-184.8410034179687	813.9240112304688	26.80200004577638	-66.04900360107422	802.1680297851562	67.43699645996097	-130.4819946289062	724.198974609375	966.0490112304688	-202.4759979248045	775.7160034179688	1394.260009765625	-100.3639984130856	873.5780029296875	553.427978515625	-140.7149963378905	907.8690185546875	719.698974609375	-121.8919982910155	806.3930053710938	588.8159790039062	-41.86500167846667	787.8040161132812	256.2940063476563	-143.9089965820312	738.3790283203125	298.010986328125	-35.66999816894525	846.8740234375	39.52700042724612	-114.0749969482422	828.5709838867188	394.5910034179688	-145.4429931640624	766.7960205078125	898.9010009765625	109.4690017700197	696.0180053710938	894.3660278320312	119.8580017089846	896.9039916992188	1190.824951171875	-256.0390014648435	691.1849975585938	1147.511962890625	-271.0830078124998	
